# xmcd
#
# Track frame offsets:
#	150
#	11887
#	23675
#	36150
#	48487
#	61437
#	73387
#	86637
#	98187
#	110450
#	121475
#	133312
#	145250
#	157287
#
# Disc length: 2404 seconds
#
# Revision: 0
# Processed by: cddbd v1.4b42PL1 Copyright (c) Steve Scherf et al.
# Submitted via: EasyCDDAExtractor 4.5.0.2
#
DISCID=d409620e
DTITLE=The Platters - Only You (Y sus Mejores Exitos)
DYEAR=1900
DGENRE=
TTITLE0=Only You (And You Alone)
TTITLE1=The Great Pretender
TTITLE2=Twilight Time
TTITLE3=My Prayer
TTITLE4=Only Because 
TTITLE5=You'll Never Never Know
TTITLE6=Harbor Lights
TTITLE7=Smoke Gets In Your Eyes
TTITLE8=(You've Got) The Magic Touch
TTITLE9=Red Sails In The Sunset
TTITLE10=How Beautiful Our Love
TTITLE11=With This Ring
TTITLE12=I Love You 1000 Times
TTITLE13=Unchained Melody
EXTD=
EXTT0=
EXTT1=
EXTT2=
EXTT3=
EXTT4=
EXTT5=
EXTT6=
EXTT7=
EXTT8=
EXTT9=
EXTT10=
EXTT11=
EXTT12=
EXTT13=
PLAYORDER=
